<svg width="1400" height="820" viewBox="0 0 1400 820" xmlns="http://www.w3.org/2000/svg">
  <rect width="1400" height="820" fill="#F3F4F6"/>
  <rect x="0" y="0" width="1400" height="86" fill="white" stroke="#E5E7EB"/>
  <text x="70" y="55" fill="#111827" font-size="30" font-family="Arial" font-weight="700">つぐポス</text>
  <text x="215" y="55" fill="#9CA3AF" font-size="12" font-family="Arial" letter-spacing="4">COUNTER</text>

  <rect x="70" y="120" width="620" height="620" rx="26" fill="white" stroke="#E5E7EB"/>
  <text x="110" y="170" fill="#111827" font-size="28" font-family="Arial" font-weight="700">準備中・調理中</text>
  <rect x="110" y="210" width="540" height="120" rx="18" fill="#FEF3C7" stroke="#FCD34D"/>
  <text x="140" y="250" fill="#111827" font-size="40" font-family="Arial" font-weight="700">No. 12</text>
  <text x="140" y="286" fill="#374151" font-size="20" font-family="Arial">キャラメル × 2</text>
  <text x="140" y="312" fill="#374151" font-size="20" font-family="Arial">ソーダ味 × 1</text>

  <rect x="110" y="350" width="540" height="120" rx="18" fill="#F9FAFB" stroke="#E5E7EB"/>
  <text x="140" y="390" fill="#111827" font-size="40" font-family="Arial" font-weight="700">No. 13</text>
  <text x="140" y="426" fill="#374151" font-size="20" font-family="Arial">チョコ × 1</text>

  <rect x="720" y="120" width="600" height="620" rx="26" fill="white" stroke="#E5E7EB"/>
  <text x="760" y="170" fill="#111827" font-size="28" font-family="Arial" font-weight="700">受け渡し操作</text>
  <text x="760" y="240" fill="#6B7280" font-size="18" font-family="Arial">選択中の注文</text>
  <text x="760" y="315" fill="#111827" font-size="62" font-family="Arial" font-weight="700">No. 12</text>
  <rect x="760" y="390" width="500" height="70" rx="16" fill="#111827"/>
  <text x="1010" y="435" text-anchor="middle" fill="white" font-size="24" font-family="Arial" font-weight="700">受け渡し完了</text>
  <text x="760" y="520" fill="#6B7280" font-size="16" font-family="Arial">右へスワイプして完了操作</text>
  <rect x="760" y="560" width="500" height="100" rx="18" fill="#ECFDF5" stroke="#A7F3D0"/>
  <text x="1010" y="618" text-anchor="middle" fill="#065F46" font-size="24" font-family="Arial" font-weight="700">完了済み履歴に追加</text>
</svg>
